<svg xmlns="http://www.w3.org/2000/svg" viewBox="0 0 896.2 384.6" preserveAspectRatio="xMinYMax meet"><style>.st0{fill:#ff715b;}</style><g id="Layer_1"><path id="XMLID_34_" class="st0" d="M120 0C53.7 0 0 53.7 0 120c0 90 120 180 120 180s120-90 120-180C240 53.7 186.3 0 120 0zm0 210c-49.7 0-90-40.3-90-90s40.3-90 90-90 90 40.3 90 90-40.3 90-90 90z"/><path id="XMLID_6_" class="st0" d="M120 67.5C91 67.5 67.5 91 67.5 120S91 172.5 120 172.5s52.5-23.5 52.5-52.5S149 67.5 120 67.5zm0 33.2c-10.6 0-19.3 8.6-19.3 19.3 0 4.5-3.7 8.2-8.2 8.2-4.5 0-8.2-3.6-8.2-8.2 0-19.6 16-35.6 35.6-35.6 4.5 0 8.2 3.6 8.2 8.2.1 4.5-3.6 8.1-8.1 8.1zm0 0"/></g><g id="Layer_2"><g id="XMLID_10_"><path id="XMLID_11_" class="st0" d="M348.6 176.6v-53.2h-16.9V99.9h16.9V72.1h27V100h20.7v23.4h-20.7v46c0 6.3 3.4 11.2 9.3 11.2 4 0 7.8-1.5 9.3-3l5.7 20.3c-4 3.6-11.2 6.5-22.4 6.5-18.8.1-28.9-9.6-28.9-27.8z"/><path id="XMLID_13_" class="st0" d="M414.7 201.9v-102h26.8v13.9c7.2-9.1 19.9-16.5 32.5-16.5v26.2c-1.9-.4-4.4-.6-7.4-.6-8.9 0-20.7 5.1-25.1 11.6v67.4h-26.8z"/><path id="XMLID_15_" class="st0" d="M487.9 72.9c0-8.9 7.4-15.8 16-15.8 8.9 0 16.1 7 16.1 15.8 0 8.9-7.2 16-16.1 16-8.6.1-16-7.1-16-16zm2.8 129v-102h26.8v102h-26.8z"/><path id="XMLID_18_" class="st0" d="M570.9 188.8v52h-26.8V99.9h26.8v12.9c7.8-9.9 19-15.4 31.5-15.4 26.2 0 45.2 19.4 45.2 53.4s-19 53.6-45.2 53.6c-12 .1-23.2-5-31.5-15.6zm48.8-38c0-17.5-10.3-29.6-25.8-29.6-8.7 0-18.6 5.1-23 11.6V169c4.4 6.3 14.4 11.6 23 11.6 15.5 0 25.8-12 25.8-29.8z"/><path id="XMLID_21_" class="st0" d="M664.5 72.9c0-8.9 7.4-15.8 16.1-15.8 8.9 0 16.1 7 16.1 15.8 0 8.9-7.2 16-16.1 16-8.7.1-16.1-7.1-16.1-16zm2.7 129v-102H694v102h-26.8z"/><path id="XMLID_24_" class="st0" d="M726.6 201.9v-78.6h-16.9V99.9h16.9v-5.5c0-21.8 13.9-35.5 34.4-35.5 9.7 0 20.1 2.5 26.6 9.5l-10.1 15.8c-2.7-2.7-6.3-4.2-11.2-4.2-7.4 0-12.7 4.9-12.7 14.4v5.5h20.7v23.4h-20.7v78.6h-27z"/><path id="XMLID_26_" class="st0" d="M800.3 217.8c2.3 1.1 5.9 1.7 8.4 1.7 7 0 11.6-1.9 14.2-7.4l3.8-8.7-41.4-103.5H814l26.6 71 26.6-71h28.9l-47.9 118.7c-7.6 19.2-21.1 24.3-38.6 24.7-3.2 0-9.9-.6-13.3-1.5l4-24z"/></g><g id="XMLID_69_"><path id="XMLID_46_" class="st0" d="M307 304.6c1.1.7 1.4 2.8 1.4 4.1-.1 7.4-3.7 12.2-9.2 17.2-3 2.7-9.1 3.9-12.6 3.5-3.8 5-4.3 7-5.4 11.8-.4 1.2-.3 3.4 0 4.5.4.9 1.4 1.9 2.3 2.2 2 .7 4.3-.1 6.4-.9 3.8-1.4 5.7-2.2 9.1-4.7 1.9-1.4 4.1-2.4 5.9-3.9 1.1-.7 2.2-1.4 3.4-1.9-1.2 4.1-4.6 7.2-8.4 10.5-2.4 2.3-5.3 3.7-8.2 4.9-1.5.8-3.2 1.2-4.7 1.2-1.2 0-2.4.1-3.5-.3-1.4-.5-2.7-.9-3.9-1.8-1.5-.9-2.2-2.4-3-3.9-.5-.8-.5-2-.8-3.1-.5-2.2.3-3.9.9-5.9.8-2.6 2.4-6.1 4.7-9.6.5-.9-2-2.4-.1-4.5 1.1-.9 2.4-.4 3.1-1.5 2.6-3.7 4.7-7.2 7.8-11.2 4.8-6.3 9.3-10.2 14.8-6.7zm-3.2 4.6c.1-.4-.3-.8-.4-.8-4.9 2.4-11 11.2-14.1 15.7-.1.1 4.5-.1 4.7-.4 3-2.2 3.8-2.3 6.2-5 3.7-4.2 2.6-8.2 3.6-9.5z"/><path id="XMLID_49_" class="st0" d="M336.1 303.2c1.5.1 3.1 2.2 2.6 3.8-.1.3-1.5.4-1.6 0-.3-1.5-2.3-1.8-3.4-1.2-1.1.7-1.9.8-2.7 1.8-10.7 10.7-16.8 17.4-23.1 29.5-1.2 2.3-3.2 6.2-2.2 8.9.8 1.6 3.2-.1 4.5-.9 5-3.4 13-9.9 15.6-13.9 4.9-7.8 6.6-13.3 11-21.5.9-1.8 2.8-3.2 4.6-1.6.8.7 1.5 1.4.9 2.4-3.7 6.4-5 9.3-8.1 15.7-2.3 4.2-4.5 8.7-4.3 13.5 0 .4-.1 1.2.3 1.6.3.8 1.1 1.5 1.8 1.8 3.1.5 3.1 1.2 5.9-.7.5-.3 3.1-2.4 3.5-2.2 1.1 1.1-.9 3.4-1.6 4.2-1.6 1.8-1.9 2.3-5.1 3.2-1.8.4-3.4 0-4.9-.8-2.4-1.1-4.1-3.1-5-7.7-5.1 4.9-8.8 9.6-16.5 12-2.4.8-4.7-.9-6.1-3-1.9-3-2.2-8.1-.8-10.8 6.9-14.5 12.6-19.7 22.7-29.1 2.7-2.7 7.8-5.8 12-5z"/><path id="XMLID_51_" class="st0" d="M369.1 303.2c2.2 2.4 2.8 5.4 2.2 8.7-.3 1.2-2.6 1.1-3.1 0-.4-.8.1-1.9 0-2.7-.4-1.5 0-2.8-1.2-3.7-.5-.3-.5-.9-1.2-1.2-1.4-.4-2.7-.3-4.1-.1-.7.1-1.4 1.4-1.5 2-1.4 3.7-.8 7.3-1.2 11-.4 4.2-.3 9.3-.3 12.4 0 0 2.7-.4 3.4.7.4.8 0 1.6-.4 2-1.1 1.2-2.7 1.5-2.7 1.5 0 5.9-.3 12.7-6.4 14.2-6.6 1.8-13.9.4-18.1-5.1-1.6-2.2-.3-5 2-6.4 5.7-3.4 11.5-4.6 17.4-6.4-.1-3.9-.1-9.9.1-14.7.1-4.1.3-8.2 1.8-12.2.5-1.5 2.2-3.1 4.2-3.2 3.2-.3 6.9.7 9.1 3.2zM354 335.1s-1.2.3-1.8.4c-4.3 2.3-8.9 2.7-13.1 5.3-.5.3-1.4.7-1.4 1.2 4.2 3.2 12 4.9 15.1-.5 1.2-1.6 1.4-4.5 1.2-6.4z"/><path id="XMLID_54_" class="st0" d="M395.5 304.6c1.1.7 1.4 2.8 1.4 4.1-.1 7.4-3.7 12.2-9.2 17.2-3 2.7-9.1 3.9-12.6 3.5-3.8 5-4.3 7-5.4 11.8-.4 1.2-.3 3.4 0 4.5.4.9 1.4 1.9 2.3 2.2 2 .7 4.3-.1 6.4-.9 3.8-1.4 5.7-2.2 9.1-4.7 1.9-1.4 4.1-2.4 5.9-3.9 1.1-.7 2.2-1.4 3.4-1.9-1.2 4.1-4.6 7.2-8.4 10.5-2.4 2.3-5.3 3.7-8.2 4.9-1.5.8-3.2 1.2-4.7 1.2-1.2 0-2.4.1-3.5-.3-1.4-.5-2.7-.9-3.9-1.8-1.5-.9-2.2-2.4-3-3.9-.5-.8-.5-2-.8-3.1-.5-2.2.3-3.9.9-5.9.8-2.6 2.4-6.1 4.7-9.6.5-.9-2-2.4-.1-4.5 1.1-.9 2.4-.4 3.1-1.5 2.6-3.7 4.7-7.2 7.8-11.2 4.8-6.3 9.2-10.2 14.8-6.7zm-3.3 4.6c.1-.4-.3-.8-.4-.8-4.9 2.4-11 11.2-14.1 15.7-.1.1 4.5-.1 4.7-.4 3-2.2 3.8-2.3 6.2-5 3.8-4.2 2.7-8.2 3.6-9.5z"/><path id="XMLID_57_" class="st0" d="M440.9 301.7c.8 0 1.6.4 2.3.7 1.4.4 1.8 1.9 2.6 3 .5.5 1.9-1.1 2.6.1.3-.4.5-.7.8-.5 1.1.5 2.3.5 3.1 1.2 1.5 1.4 2.3 3.1 2.3 4.6 0 3.2-1.2 6.1-1.9 9.2-.4 1.2-.9 2.7-1.6 3.8-4.9 8.2-8.5 15.6-16.4 21-4.2 2.6-7.7 5-12.3 5.4-1.8.3-3.8 0-5.4-.7-1.6-.8-3.1-2.2-3.9-4.1-.7-1.8-.7-3.9-.1-6.2.1-1.9.5-3.8 1.4-5.4 3.4-6.5 7.2-14.1 11.8-19.7 4.3-5.6 7.9-10.1 14.7-12.4zm9.1 7.3c-1.5-.5-2.6-.3-3.8.5-6.8 4.1-8.7 12.4-13.5 18.5-.1.3-.7 0-.8.1-.5.1-.4 1.4-1.1 1.1-.9-.1-.5-.9-.4-1.5 1.4-4.7 2.6-7.4 5.9-13.5 2.3-3.4 4.6-6.6 7.8-8.4-.3-.4-.9-.7-1.1-.4-.7.4-2.7 1.1-3.1 1.5-7.3 4.3-13.3 12.3-21.6 28.5-.9 2.2-3.1 7.4-.1 9.2 1.4.8 3.1.7 4.6.4 6.4-2 11.8-5.7 16.1-10.7 6.1-6.6 10.5-13.8 12.7-22.7.4-1.2-.3-2.1-1.6-2.6z"/><path id="XMLID_60_" class="st0" d="M478 279.6c.7-1.4 2.2-3.8 3.5-4.3 2.6-1.1 6.4-1.1 7.2 1.8 1.9 6.8.1 13-3.4 18.9-.8 1.4-2.4-.7-2.4-.7.1-1.9 1.4-3 2-5.5.8-3.5 1.5-6.2 1.4-9.7 0-.4-.7-.8-.7-.8-3 2-4.1 5.3-5.5 8.2-3.4 6.5-6.9 13-8.7 20.1-.3.5 2.6 0 3.2-.3 5.4-.9 9.1-1.9 14.3-1.4.7.1 1.6-.1 2.2.3.1 0 .1.7 0 .8-6.6 4.5-14.2 4.5-21.6 6.2-.4.1-1.2 0-1.5.7-6.6 18.9-14.3 36.8-20.7 56-.4 1.6-1.8 3.1-3.4 3.9-.3 0-.8.1-1.2 0-1.2-.9-3-2.4-2-3.8.9-1.4 1.8-2.4 2.3-3.7 2.8-7.6 4.9-15.3 8.2-22.6 1.8-3.8 2.3-6.9 4.1-10.7 2.4-5.4 5.1-12.4 6.8-18.1.1-.5-1.6.7-2.3.3-1.5-.9-2.4-2.6-2.2-4.3.1-.8 1.2-1.1 1.8-1.2 1.8-.1 3.4-.8 5.1-1.2 0 0 2-3.1 2.7-5 3.2-9.3 7.1-16.6 10.8-23.9z"/><path id="XMLID_62_" class="st0" d="M520.5 293.4c1.2-1.9 1.6-4.3 3.8-5.3.7-.4 1.9-.4 2.6 0 1.1.5 1.8 1.9 1.1 2.8-3.1 4.5-4.9 8.8-8 13.3-.3.4-.8 1.4-.8 1.4 1.6 0 11.9-2.7 14.1-1.6.3.1 0 1.9-.8 2.3-1.5.5-8.2 2.6-9.5 3.1-1.8.7-4.9 1.5-6.4 1.9 0 0-.8.9-1.4 1.8-5.3 9.3-11.4 17.4-14.9 27.5-.4 1.4-.4 2.3.5 3.9.5.9 2.3 1.1 3.2.8 2.2-.9 3.7-1.8 5.7-2.6 4.1-1.6 9.1-4.2 8.9-3.8.9.7 3 .8-1.8 4.3-6.5 5-7.8 4.7-12 6.8-1.4.7-3 1.4-4.7.9-2.3-.5-4.2-2-4.9-4.2-.7-2.4-.8-4.9 0-7.6 2.8-9.5 9.6-17.8 14.2-26.4.1-.4-.8.3-.9.3-2.6.8-2.3.4-5 .9-1.2.3-2.7.8-3.8-.1-1.2-1.2-1.5-2-1.1-3.4.5-1.2 1.9-1.6 2.8-1.6 2.3-.1 2.4-.3 4.6-.7 2.6-.4 3.9.1 6.2-1.1 1.2-.4 1.1-1.9 1.8-3 2.6-3.6 4.2-7 6.5-10.6z"/><path id="XMLID_64_" class="st0" d="M533.4 300.7c.9-1.5 2.7-.4 3.5 1.1.5 1.1-.1 2.2-.5 3-2.7 6.8-9.1 19.6-12.8 26.1-.1.4 7.2-10.4 7.2-10.4 3.4-4.3 5.5-7.4 11.4-12 2.2-1.9 4.1-4.1 7.2-3 1.6.5 2.4 2.3 2.4 3.9.1.9-.4 2.2-.7 3.4-.7 1.5-2.2 3.9-3.1 5.1-2.3 3-2.8 6.2-5.3 7.7-1.2.7-1.9-1.6-1.9-2.7 0-.9.3-2.3.8-3.1 1.2-2.2 2.7-4.3 3.7-6.6.3-.4.1-1.4-.1-1.1-4.1 1.8-6.8 7-9.6 10.4-13 14.7-13.3 17.6-18.3 25.2-.7.8-1.5 1.5-2.3.8-1.2-.8-2.3-2.2-1.9-3.8 3.1-10.8 10.8-22 14.9-32.3 1.5-4.2 3.1-8.1 5.4-11.7z"/><path id="XMLID_66_" class="st0" d="M576.7 303.2c1.5.1 3.1 2.2 2.6 3.8-.1.3-1.5.4-1.6 0-.3-1.5-2.3-1.8-3.4-1.2-1.1.7-1.9.8-2.7 1.8-10.7 10.7-16.8 17.4-23.1 29.5-1.2 2.3-3.2 6.2-2.2 8.9.8 1.6 3.2-.1 4.5-.9 5-3.4 13-9.9 15.6-13.9 4.9-7.8 6.6-13.3 11-21.5.9-1.8 2.8-3.2 4.6-1.6.8.7 1.5 1.4.9 2.4-3.7 6.4-5 9.3-8.1 15.7-2.3 4.2-4.5 8.7-4.3 13.5 0 .4-.1 1.2.3 1.6.3.8 1.1 1.5 1.8 1.8 3.1.5 3.1 1.2 5.9-.7.5-.3 3.1-2.4 3.5-2.2 1.1 1.1-.9 3.4-1.6 4.2-1.6 1.8-1.9 2.3-5.1 3.2-1.8.4-3.4 0-4.9-.8-2.4-1.1-4.1-3.1-5-7.7-5.1 4.9-8.8 9.6-16.5 12-2.4.8-4.7-.9-6.1-3-1.9-3-2.2-8.1-.8-10.8 6.9-14.5 12.6-19.7 22.7-29.1 2.6-2.7 7.8-5.8 12-5z"/><path id="XMLID_68_" class="st0" d="M601.8 310.9c-3 7.7-7.2 14.3-11.8 21.5-1.5 2.3-3.1 4.6-4.1 7.3-.3 1.1-.9 2.3-.8 3.4.3.8.4 2.4 1.6 1.8 8-4.7 14.5-13.1 20-21.9 2.6-4.3 4.5-8.1 6.6-13.4.5-1.2-.7-2.4-.3-3.4.5-1.8 2.4-1.6 3.8-.8 1.2.7 2.2 1.8 3.5 2.3 4.5 1.9 5-.3 9.2 1.6.7.3-.1 2.3-1.1 2.6-5.4 1.2-6.1 1.9-11.2.4-6.1 11-10.7 23-20.6 31.6-3.5 3.2-7.2 7.4-12 6.5-5.1-1.1-5.4-7.3-3.8-11.5 3.7-10 11.4-17.7 15.3-27.7.3-.8 0-3-.3-3.4-1.4-1.5 2.6-5.1 5.8-3 2 1.3.9 4 .2 6.1z"/><path id="XMLID_74_" class="st0" d="M645.1 304.6c1.1.7 1.4 2.8 1.4 4.1-.1 7.4-3.7 12.2-9.2 17.2-3 2.7-9.1 3.9-12.6 3.5-3.8 5-4.3 7-5.4 11.8-.4 1.2-.3 3.4 0 4.5.4.9 1.4 1.9 2.3 2.2 2 .7 4.3-.1 6.4-.9 3.8-1.4 5.7-2.2 9.1-4.7 1.9-1.4 4.1-2.4 6-3.9 1.1-.7 2.2-1.4 3.4-1.9-1.2 4.1-4.6 7.2-8.4 10.5-2.4 2.3-5.3 3.7-8.2 4.9-1.5.8-3.2 1.2-4.7 1.2-1.2 0-2.4.1-3.5-.3-1.4-.5-2.7-.9-3.9-1.8-1.5-.9-2.2-2.4-3-3.9-.5-.8-.5-2-.8-3.1-.5-2.2.3-3.9.9-5.9.8-2.6 2.4-6.1 4.7-9.6.5-.9-2-2.4-.1-4.5 1.1-.9 2.4-.4 3.1-1.5 2.6-3.7 4.7-7.2 7.8-11.2 4.7-6.3 9.1-10.2 14.7-6.7zm-3.3 4.6c.1-.4-.3-.8-.4-.8-4.9 2.4-11 11.2-14.1 15.7-.1.1 4.5-.1 4.7-.4 3-2.2 3.8-2.3 6.2-5 3.8-4.2 2.7-8.2 3.6-9.5z"/><path id="XMLID_77_" class="st0" d="M659.7 302.2c4.3-8.5 7.4-17.3 11.9-25.7 2 .1 3.7 2 3 3.9-4.7 12-10.3 23.4-16.2 35-.9 1.8-1.9 3.4-2.7 5.1-3 6.2-6.8 12-8.8 18.8-.4 1.6-.3 3.5.3 5.3.3.7 1.1.7 1.4.7 7.8 0 10.4-4.5 17.7-6.8-.4 3-3.4 4.7-5.3 7.4-1.5 1.8-2.8 2.2-4.7 3-2.6.9-1.1.9-3.8 1.2-2 .4-4.3.5-6-.4-9.7-6-2.7-17.7 1.6-25.3 4.1-7.4 7.7-14.7 11.6-22.2z"/></g></g></svg>