<svg xmlns="http://www.w3.org/2000/svg" viewBox="0 0 1637.1 477" preserveAspectRatio="xMinYMax meet"><style>.st0{fill:#DE5A46;} .st1{fill:#F26651;} .st2{fill:#C04C3B;} .st3{fill:#FFFFFF;} .st4{fill:#E6E6E6;} .st5{fill:#F2F2F2;} .st6{fill:#B3B3B3;} .st7{fill:#707070;} .st8{opacity:0.5;fill:#FFFFFF;}</style><g id="Flag"><path id="XMLID_86_" class="st0" d="M74 257.7h47v75.6H74z"/><path id="XMLID_85_" class="st1" d="M78 284v8H3.9c-2.1 0-3.9 1.7-3.9 3.9v75.3c0 2.1 1.7 3.9 3.9 3.9h81.9c5 0 9.2-4.1 9.2-9.2V284H78z"/><path id="XMLID_84_" class="st2" d="M86.4 275H63v-9H53V291.9h33.4c4.8 0 8.6-3.5 8.6-8.2v.1c0-4.7-3.8-8.8-8.6-8.8z"/><path id="XMLID_83_" class="st0" d="M61.6 257.7h33.6V275H61.6c-4.8 0-8.6-3.9-8.6-8.6 0-4.8 3.9-8.7 8.6-8.7z"/><path id="XMLID_81_" class="st3" d="M48 327v-17H35v17H17v13h18v17h13v-17h17v-13z"/><path id="XMLID_80_" class="st4" d="M121 257.7h7.3V420H121z"/></g><g id="Exhaust"><ellipse id="XMLID_100_" class="st5" cx="1069" cy="39.9" rx="11.7" ry="12.4"/><ellipse id="XMLID_106_" class="st5" cx="1006" cy="39.9" rx="15" ry="16"/><circle id="XMLID_102_" class="st5" cx="919.8" cy="39.9" r="20.3"/><circle id="XMLID_107_" class="st5" cx="788.8" cy="39.9" r="34.2"/><circle id="XMLID_105_" class="st5" cx="1116.9" cy="39.9" r="5.9"/></g><g id="Cow"><path id="XMLID_108_" class="st4" d="M1231.7 63h-38.6l-49-48.3 23.1.1z"/><path id="XMLID_99_" class="st5" d="M1162.8 80.5c0-6.2-4.9-11.3-10.9-11.3s-10.9 5.1-10.9 11.3c0 5.1 3.3 9.4 7.8 10.8v.4c0 1.4.4 2.5 1 2.5.5 0 1-1.1 1-2.5.4 0 .8.1 1.1.1h.8c0 1.4.4 2.5 1 2.5.5 0 1-1.1 1-2.5v-.3c4.6-1.3 8.1-5.7 8.1-11z"/><path id="XMLID_97_" class="st6" d="M1134 25V97.6c0 1.3 1.1 2.4 2.3 2.4h6.8c1.3 0 1.9-1.1 1.9-2.4V82h60v15.6c0 1.3 1.2 2.4 2.5 2.4h6.8c1.3 0 2.8-1.1 2.8-2.4V82h4v15.6c0 1.3 1.3 2.4 2.6 2.4h6.8c1.3 0 1.7-1.2 1.7-2.5V25H1134z"/><path id="XMLID_96_" class="st7" d="M1249.1 21.2c.2-.1 6.9-4.9 6.9-12.5 0-6.8-7.3 9.3-15.1 9.3H1224c-7.8 0-15.8-14.8-15.1-8.8.9 8.8 6.1 11.8 6.8 12.1-.9.5-1.8 1.1-2.6 1.9-2.4 2.4-3.5 5.3-2.4 6.5 1 1 3.4.4 5.6-1.5l1.4 18.7h29.4l1.4-18.7c2.2 1.8 4.6 2.4 5.6 1.4 1.1-1.1.1-4.1-2.4-6.5-.8-.7-1.8-1.5-2.6-1.9z"/><path id="XMLID_95_" class="st4" d="M1240.2 65.2h-15.5c-5.6 0-10.1-4.5-10.1-10.1s4.5-10.1 10.1-10.1h15.5c5.6 0 10.1 4.5 10.1 10.1s-4.5 10.1-10.1 10.1z"/><ellipse id="XMLID_94_" class="st3" cx="1224" cy="55.5" rx="3.4" ry="1"/><ellipse id="XMLID_93_" class="st3" cx="1241" cy="55.5" rx="3.4" ry="1"/><circle id="XMLID_92_" class="st3" cx="1224.2" cy="28.6" r="2.4"/><circle id="XMLID_91_" class="st3" cx="1240.6" cy="28.6" r="2.4"/><path id="XMLID_90_" class="st4" d="M1200.6 40H1162l-49 47.9 23.1.1z"/><path id="XMLID_89_" class="st6" d="M1088 25h46v6h-46z"/><path id="XMLID_88_" class="st6" d="M1087.8 25.6s-6.7-3.1-12.8-2.9v10.5s4.9.9 12.9-2.2-.1-5.4-.1-5.4z"/></g><g id="First_Mountain"><path id="XMLID_17_" class="st7" d="M390.3 477H31.6l128.1-132.5.2-.3 51.1-52.9 49.9 51.7.2.4z"/><path id="XMLID_16_" class="st4" d="M261.1 342.5l-.2.4-2.9 6.6-2.5-3-7.7 14.8-10.5-12.3-11.8 25.5-8.7-7-5.8 6.9v.1l-15.5-20.2-12.2 13.2-7.5-18.2-10.8 3.2-5.1-8.5-.2-.3L211 291z"/><path id="XMLID_13_" class="st8" d="M390.3 477H211V291l50.1 51.5-.2.4.2.5z"/><path id="XMLID_8_" class="st7" d="M221.5 477l6.8-24.1L235 477z"/><path id="XMLID_11_" class="st7" d="M239 419l-6.7-24.1-6.8 24.1h5.5v2h2v-2z"/><path id="XMLID_3_" class="st7" d="M285 408l-6.7-24.1-6.8 24.1h5.5v2h2v-2z"/><path id="XMLID_5_" class="st7" d="M283 457l-6.7-24.1-6.8 24.1h5.5v2h2v-2z"/></g><g id="Fourth"><path id="XMLID_103_" class="st7" d="M1424.1 399H918.6l177.9-184 2.6-2.7.3-.4 1.1-1.1 5.2-5.4 65.3-67.6.4-.4 59.5 61.6 3.6 3.8 7.1 7.4.1.1.2.5 2.4 2.5z"/><path id="XMLID_54_" class="st7" d="M1377 383l-6.7-24.1-6.8 24.1h5.5v2h2v-2z"/><path id="XMLID_53_" class="st7" d="M1335 376l-6.7-24.1-6.8 24.1h5.5v2h2v-2z"/><path id="XMLID_36_" class="st7" d="M1277 392l-6.7-24.1-6.8 24.1h5.5v2h2v-2z"/><path id="XMLID_82_" class="st4" d="M1231.7 199.3l-.8-.3-17.2-5-5 12.3-4-4.4-8.7 16.8-7.3-5.2-2.2 11.5-15.5-23.1-24 20.8-11.7-13-2.3 5.3-11.6-9-15.2 19-5.7-14.2 5.2-5.4 65.3-67.6v-.8z"/><path id="XMLID_101_" class="st8" d="M1424.1 399H1171V137l60.7 62 2.9 3.1 7.2 7.4-.2.6v.1l.3.6 2.4 2.5z"/><path id="XMLID_59_" class="st7" d="M1200 282l-6.7-24.1-6.8 24.1h5.5v2h2v-2z"/><path id="XMLID_58_" class="st7" d="M1255 279l-6.7-24.1-6.8 24.1h5.5v2h2v-2z"/><path id="XMLID_57_" class="st7" d="M1304 321l-6.7-24.1-6.8 24.1h5.5v2h2v-2z"/><path id="XMLID_56_" class="st7" d="M1241 338l-6.7-24.1-6.8 24.1h5.5v2h2v-2z"/><path id="XMLID_55_" class="st7" d="M1200 383l-6.7-24.1-6.8 24.1h5.5v2h2v-2z"/></g><g id="Cloud_2_1_"><circle id="XMLID_76_" class="st5" cx="725.8" cy="60.3" r="60.3"/><circle id="XMLID_77_" class="st5" cx="817.6" cy="89.6" r="52.1"/><circle id="XMLID_78_" class="st5" cx="629.6" cy="98.4" r="55.4"/><path id="XMLID_79_" class="st5" d="M800.3 161.7H532.9c-15.3 0 11.3-13.4 11.3-28.7 0-15.3 12.4-27.7 27.7-27.7h267.4c15.3 0 27.7 12.4 27.7 27.7 0 15.3-51.4 28.7-66.7 28.7z"/></g><g id="Third"><path id="XMLID_50_" class="st7" d="M1292.5 477H471.6l289-298.8 4.2-4.4.4-.6 10.2-10.6 27.3-28.3 78.8-81.5.5-.4.2-.2 89.7 92.9 12.8 13.3 11.5 11.9.1.2.5.8 3.8 4z"/><path id="XMLID_46_" class="st4" d="M972 144.1l-.1 1-.2 1.2-11.4 5.4-3.3 12.6-14-14.6-3.3 30.4-10.7-5.8-9-17.3h-12.3l-7.4 23.1-10.6-30.1-7.7 8.3-12.3-14.6-9.7 8.3v-9.7l-17.8 23.3-8.5-25.6-14 5.5-17-11.2 78.8-81.5.5-.4v-.9z"/><path id="XMLID_48_" class="st8" d="M1292.5 477H882V51.5l90 92.6 13 13.3 11.6 12-.3.9h-.1v.1l.5.9 3.9 4z"/><path id="XMLID_35_" class="st7" d="M916 220l-6.7-24.1-6.8 24.1h5.5v2h2v-2z"/><path id="XMLID_37_" class="st7" d="M972 226l-6.7-24.1-6.8 24.1h5.5v2h2v-2z"/><path id="XMLID_38_" class="st7" d="M1046 272l-6.7-24.1-6.8 24.1h5.5v2h2v-2z"/><path id="XMLID_39_" class="st7" d="M992 298l-6.7-24.1-6.8 24.1h5.5v2h2v-2z"/><path id="XMLID_40_" class="st7" d="M940 305l-6.7-24.1-6.8 24.1h5.5v2h2v-2z"/><path id="XMLID_41_" class="st7" d="M919 383l-6.7-24.1-6.8 24.1h5.5v2h2v-2z"/><path id="XMLID_42_" class="st7" d="M1016 367l-6.7-24.1-6.8 24.1h5.5v2h2v-2z"/><path id="XMLID_43_" class="st7" d="M1085 354l-6.7-24.1-6.8 24.1h5.5v2h2v-2z"/><path id="XMLID_44_" class="st7" d="M1101 315l-6.7-24.1-6.8 24.1h5.5v2h2v-2z"/><path id="XMLID_45_" class="st7" d="M965 431l-6.7-24.1-6.8 24.1h5.5v2h2v-2z"/><path id="XMLID_47_" class="st7" d="M916 468l-6.7-24.1-6.8 24.1h5.5v2h2v-2z"/><path id="XMLID_49_" class="st7" d="M1072 428l-6.7-24.1-6.8 24.1h5.5v2h2v-2z"/><path id="XMLID_51_" class="st7" d="M1157 402l-6.7-24.1-6.8 24.1h5.5v2h2v-2z"/><path id="XMLID_52_" class="st7" d="M1138 461l-6.7-24.1-6.8 24.1h5.5v2h2v-2z"/></g><g id="Second"><path id="XMLID_27_" class="st7" d="M759.1 477H253.6l177.9-184 2.6-2.7.3-.4 6.3-6.5 65.3-67.6.4-.4 63.1 65.4 7.1 7.4.1.1.3.5 2.3 2.5z"/><path id="XMLID_22_" class="st4" d="M569.6 280.2l-.1.6v.2l-3 27-18-16.7L546 303l-12-7.5-2.5 18-15.5-18-10 17.5-7.5-6.5-8 13.5-9-10.5-8 8-4.5-9.5-4.5-10.5-10.5.5-17 16-5.5-21 2.6-2.7.3-.4 6.3-6.5 65.3-67.6v-.8z"/><path id="XMLID_25_" class="st8" d="M759.1 477H506V215l63.6 65.2 7.2 7.4-.2.6.3.6 2.4 2.5z"/><path id="XMLID_1_" class="st7" d="M535 360l-6.7-24.1-6.8 24.1h5.5v2h2v-2z"/><path id="XMLID_7_" class="st7" d="M590 357l-6.7-24.1-6.8 24.1h5.5v2h2v-2z"/><path id="XMLID_10_" class="st7" d="M639 399l-6.7-24.1-6.8 24.1h5.5v2h2v-2z"/><path id="XMLID_12_" class="st7" d="M576 416l-6.7-24.1-6.8 24.1h5.5v2h2v-2z"/><path id="XMLID_14_" class="st7" d="M535 461l-6.7-24.1-6.8 24.1h5.5v2h2v-2z"/><path id="XMLID_15_" class="st7" d="M712 461l-6.7-24.1-6.8 24.1h5.5v2h2v-2z"/><path id="XMLID_18_" class="st7" d="M670 454l-6.7-24.1-6.8 24.1h5.5v2h2v-2z"/><path id="XMLID_19_" class="st7" d="M612 470l-6.7-24.1-6.8 24.1h5.5v2h2v-2z"/></g><g id="Fifth"><path id="XMLID_104_" class="st7" d="M1637.1 477h-505.5l158.8-164.3 19.1-19.7 2.6-2.7.3-.4 6.3-6.5 65.3-67.6.4-.4 63.1 65.4 7.1 7.4.1.1.2.5 2.4 2.5 21 21.6z"/><path id="XMLID_60_" class="st4" d="M1384 356.6c-9.9-9.9-19.8-19.7-29.7-29.6l-6.8 6-10.5-10-27 12.9-2-12.9-10.5 10-7.1-20.3 19.1-19.7 2.6-2.7.3-.4 6.3-6.5 65.3-67.6v-.8l63.6 65.2 7.2 7.4-.2.5.1.1.3.5 2.4 2.5 20.9 21.6-1.7 1-15.3-4-14-3.5-2.2 23.4-13-22.4-19 28.4-16.5-6c-4.3 9.1-8.4 18-12.6 26.9z"/><path id="XMLID_98_" class="st8" d="M1637.1 477H1384V215l63.6 65.2 7.2 7.4-.2.6.3.6 2.4 2.5 21 21.6z"/><path id="XMLID_70_" class="st7" d="M1413 360l-6.7-24.1-6.8 24.1h5.5v2h2v-2z"/><path id="XMLID_69_" class="st7" d="M1468 357l-6.7-24.1-6.8 24.1h5.5v2h2v-2z"/><path id="XMLID_68_" class="st7" d="M1517 399l-6.7-24.1-6.8 24.1h5.5v2h2v-2z"/><path id="XMLID_67_" class="st7" d="M1454 416l-6.7-24.1-6.8 24.1h5.5v2h2v-2z"/><path id="XMLID_66_" class="st7" d="M1413 461l-6.7-24.1-6.8 24.1h5.5v2h2v-2z"/><path id="XMLID_65_" class="st7" d="M1590 461l-6.7-24.1-6.8 24.1h5.5v2h2v-2z"/><path id="XMLID_64_" class="st7" d="M1548 454l-6.7-24.1-6.8 24.1h5.5v2h2v-2z"/><path id="XMLID_63_" class="st7" d="M1490 470l-6.7-24.1-6.8 24.1h5.5v2h2v-2z"/></g><g id="Cloud"><circle id="XMLID_61_" class="st5" cx="261.3" cy="165.6" r="30.4"/><circle id="XMLID_62_" class="st5" cx="202.2" cy="152" r="44.5"/><path id="XMLID_71_" class="st5" d="M163.2 196.5h96.7c7 0 12.7-5.7 12.7-12.7 0-7-5.7-12.7-12.7-12.7h-96.7c-7 0-12.7 5.7-12.7 12.7 0 7 5.7 12.7 12.7 12.7z"/></g><g id="Cloud_3"><circle id="XMLID_72_" class="st5" cx="1401" cy="69.3" r="53.8"/><circle id="XMLID_73_" class="st5" cx="1470" cy="99.5" r="35"/><circle id="XMLID_74_" class="st5" cx="1333" cy="94.5" r="27"/><path id="XMLID_75_" class="st5" d="M1306.8 134.8h166.5c9 0 16.3-7.3 16.3-16.2 0-9-7.3-16.2-16.3-16.2h-166.5c-9 0-16.3 7.3-16.3 16.2 0 8.9 7.3 16.2 16.3 16.2z"/></g></svg>