<svg xmlns="http://www.w3.org/2000/svg" viewBox="0 0 1565.1 465" preserveAspectRatio="xMinYMax meet"><style>.st0{fill:#F2F2F2;} .st1{fill:#707070;} .st2{fill:#E6E6E6;} .st3{opacity:0.5;fill:#FFFFFF;}</style><g id="Cloud_2_1_"><circle id="XMLID_76_" class="st0" cx="625.8" cy="60.3" r="60.3"/><circle id="XMLID_77_" class="st0" cx="717.6" cy="89.6" r="52.1"/><circle id="XMLID_78_" class="st0" cx="529.6" cy="98.4" r="55.4"/><path id="XMLID_79_" class="st0" d="M700.3 161.7H432.9c-15.3 0 11.3-13.4 11.3-28.7 0-15.3 12.4-27.7 27.7-27.7h267.4c15.3 0 27.7 12.4 27.7 27.7 0 15.3-51.4 28.7-66.7 28.7z"/></g><g id="Fourth"><path id="XMLID_103_" class="st1" d="M843.1 390H337.6l177.9-184 2.6-2.7.3-.4 1.1-1.1 5.2-5.4 65.3-67.6.4-.4 59.5 61.6 3.6 3.8 7.1 7.4.1.1.2.5 2.4 2.5z"/><path id="XMLID_54_" class="st1" d="M796 374l-6.7-24.1-6.8 24.1h5.5v2h2v-2z"/><path id="XMLID_53_" class="st1" d="M754 367l-6.7-24.1-6.8 24.1h5.5v2h2v-2z"/><path id="XMLID_36_" class="st1" d="M696 383l-6.7-24.1-6.8 24.1h5.5v2h2v-2z"/><path id="XMLID_82_" class="st2" d="M650.7 190.3l-.8-.3-17.2-5-5 12.3-4-4.4-8.7 16.8-7.3-5.2-2.2 11.5-15.5-23.1-24 20.8-11.7-13-2.3 5.3-11.6-9-15.2 19-5.7-14.2 5.2-5.4 65.3-67.6v-.8z"/><path id="XMLID_101_" class="st3" d="M843.1 390H590V128l60.7 62 2.9 3.1 7.2 7.4-.2.6v.1l.3.6 2.4 2.5z"/><path id="XMLID_59_" class="st1" d="M619 273l-6.7-24.1-6.8 24.1h5.5v2h2v-2z"/><path id="XMLID_58_" class="st1" d="M674 270l-6.7-24.1-6.8 24.1h5.5v2h2v-2z"/><path id="XMLID_57_" class="st1" d="M723 312l-6.7-24.1-6.8 24.1h5.5v2h2v-2z"/><path id="XMLID_56_" class="st1" d="M660 329l-6.7-24.1-6.8 24.1h5.5v2h2v-2z"/><path id="XMLID_55_" class="st1" d="M619 374l-6.7-24.1-6.8 24.1h5.5v2h2v-2z"/></g><g id="Third"><path id="XMLID_85_" class="st1" d="M711.5 468h-820.9l289-298.8 4.2-4.4.4-.6 10.2-10.6 27.3-28.3 78.8-81.5.5-.4.2-.2 89.7 92.9 12.8 13.3 11.5 11.9.1.2.5.8 3.8 4z"/><path id="XMLID_84_" class="st2" d="M391 135.1l-.1 1-.2 1.2-11.4 5.4-3.3 12.6-14-14.6-3.3 30.4-10.7-5.8-9-17.3h-12.3l-7.4 23.1-10.6-30.1-7.7 8.3-12.3-14.6-9.7 8.3v-9.7l-17.8 23.3-8.5-25.6-14 5.5-17-11.2 78.8-81.5.5-.4v-.9z"/><path id="XMLID_83_" class="st3" d="M711.5 468H301V42.5l90 92.6 13 13.3 11.6 12-.3.9h-.1v.1l.5.9 3.9 4z"/><path id="XMLID_81_" class="st1" d="M335 211l-6.7-24.1-6.8 24.1h5.5v2h2v-2z"/><path id="XMLID_80_" class="st1" d="M391 217l-6.7-24.1-6.8 24.1h5.5v2h2v-2z"/><path id="XMLID_71_" class="st1" d="M465 263l-6.7-24.1-6.8 24.1h5.5v2h2v-2z"/><path id="XMLID_62_" class="st1" d="M411 289l-6.7-24.1-6.8 24.1h5.5v2h2v-2z"/><path id="XMLID_61_" class="st1" d="M359 296l-6.7-24.1-6.8 24.1h5.5v2h2v-2z"/><path id="XMLID_34_" class="st1" d="M338 374l-6.7-24.1-6.8 24.1h5.5v2h2v-2z"/><path id="XMLID_33_" class="st1" d="M435 358l-6.7-24.1-6.8 24.1h5.5v2h2v-2z"/><path id="XMLID_32_" class="st1" d="M504 345l-6.7-24.1-6.8 24.1h5.5v2h2v-2z"/><path id="XMLID_31_" class="st1" d="M520 306l-6.7-24.1-6.8 24.1h5.5v2h2v-2z"/><path id="XMLID_30_" class="st1" d="M384 422l-6.7-24.1-6.8 24.1h5.5v2h2v-2z"/><path id="XMLID_29_" class="st1" d="M335 459l-6.7-24.1-6.8 24.1h5.5v2h2v-2z"/><path id="XMLID_28_" class="st1" d="M491 419l-6.7-24.1-6.8 24.1h5.5v2h2v-2z"/><path id="XMLID_26_" class="st1" d="M576 393l-6.7-24.1-6.8 24.1h5.5v2h2v-2z"/><path id="XMLID_24_" class="st1" d="M557 452l-6.7-24.1-6.8 24.1h5.5v2h2v-2z"/></g><g id="Second"><path id="XMLID_27_" class="st1" d="M1004 468H452.6l194.1-200.7 2.8-2.9.3-.5 6.9-7.1 71.3-73.7.4-.5 68.9 71.4 7.7 8 .1.1.3.6 2.6 2.7z"/><path id="XMLID_22_" class="st2" d="M797.3 253.3v.7l-.1.2-3.2 29.4-19.7-18.2-2.7 12.8-13.1-8.2-2.7 19.6-16.9-19.6-10.9 19.1-8.2-7.1-8.8 14.7-9.8-11.4-8.7 8.7-4.9-10.4-4.9-11.4-11.5.5-18.5 17.5-6-22.9 2.8-2.9.3-.5 6.9-7.1 71.3-73.7v-.9z"/><path id="XMLID_25_" class="st3" d="M1004 468H728V182.2l69.3 71.1 7.9 8.1-.2.6v.1l.3.6 2.6 2.7z"/><path id="XMLID_1_" class="st1" d="M759.6 340l-7.4-26.3-7.3 26.3h6.1v3h2v-3z"/><path id="XMLID_7_" class="st1" d="M819.6 337l-7.4-26.3-7.3 26.3h6.1v2h2v-2z"/><path id="XMLID_10_" class="st1" d="M873 383l-7.3-26.3-7.4 26.3h5.7v2h3v-2z"/><path id="XMLID_12_" class="st1" d="M804.3 401l-7.3-26.3-7.4 26.3h6.4v3h2v-3z"/><path id="XMLID_14_" class="st1" d="M759.6 451l-7.4-26.3-7.3 26.3h6.1v2h2v-2z"/><path id="XMLID_15_" class="st1" d="M952.7 451l-7.4-26.3L938 451h6v2h2v-2z"/><path id="XMLID_18_" class="st1" d="M906.8 443l-7.3-26.3-7.4 26.3h5.9v2h2v-2z"/><path id="XMLID_19_" class="st1" d="M843.6 460l-7.4-26.3-7.3 26.3h6.1v3h2v-3z"/></g><g id="Fifth"><path id="XMLID_104_" class="st1" d="M1565.1 481h-505.5l158.8-164.3 19.1-19.7 2.6-2.7.3-.4 6.3-6.5 65.3-67.6.4-.4 63.1 65.4 7.1 7.4.1.1.2.5 2.4 2.5 21 21.6z"/><path id="XMLID_60_" class="st2" d="M1312 360.6c-9.9-9.9-19.8-19.7-29.7-29.6l-6.8 6-10.5-10-27 12.9-2-12.9-10.5 10-7.1-20.3 19.1-19.7 2.6-2.7.3-.4 6.3-6.5 65.3-67.6v-.8l63.6 65.2 7.2 7.4-.2.5.1.1.3.5 2.4 2.5 20.9 21.6-1.7 1-15.3-4-14-3.5-2.2 23.4-13-22.4-19 28.4-16.5-6c-4.3 9.1-8.4 18-12.6 26.9z"/><path id="XMLID_98_" class="st3" d="M1565.1 481H1312V219l63.6 65.2 7.2 7.4-.2.6.3.6 2.4 2.5 21 21.6z"/><path id="XMLID_70_" class="st1" d="M1341 364l-6.7-24.1-6.8 24.1h5.5v2h2v-2z"/><path id="XMLID_69_" class="st1" d="M1396 361l-6.7-24.1-6.8 24.1h5.5v2h2v-2z"/><path id="XMLID_68_" class="st1" d="M1445 403l-6.7-24.1-6.8 24.1h5.5v2h2v-2z"/><path id="XMLID_67_" class="st1" d="M1382 420l-6.7-24.1-6.8 24.1h5.5v2h2v-2z"/><path id="XMLID_66_" class="st1" d="M1341 465l-6.7-24.1-6.8 24.1h5.5v2h2v-2z"/><path id="XMLID_65_" class="st1" d="M1518 465l-6.7-24.1-6.8 24.1h5.5v2h2v-2z"/><path id="XMLID_64_" class="st1" d="M1476 458l-6.7-24.1-6.8 24.1h5.5v2h2v-2z"/><path id="XMLID_63_" class="st1" d="M1418 474l-6.7-24.1-6.8 24.1h5.5v2h2v-2z"/></g><g id="First_Mountain"><path id="XMLID_17_" class="st1" d="M1195.3 469H836.6l128.1-132.5.2-.3 51.1-52.9 49.9 51.7.2.4z"/><path id="XMLID_16_" class="st2" d="M1066.1 334.5l-.2.4-2.9 6.6-2.5-3-7.7 14.8-10.5-12.3-11.8 25.5-8.7-7-5.8 6.9v.1l-15.5-20.2-12.2 13.2-7.5-18.2-10.8 3.2-5.1-8.5-.2-.3L1016 283z"/><path id="XMLID_13_" class="st3" d="M1195.3 469H1016V283l50.1 51.5-.2.4.2.5z"/><path id="XMLID_8_" class="st1" d="M1026.5 469l6.8-24.1 6.7 24.1z"/><path id="XMLID_9_" class="st1" d="M1105.5 476l6.8-24.1 6.7 24.1z"/><path id="XMLID_11_" class="st1" d="M1044 411l-6.7-24.1-6.8 24.1h5.5v2h2v-2z"/><path id="XMLID_3_" class="st1" d="M1090 400l-6.7-24.1-6.8 24.1h5.5v2h2v-2z"/><path id="XMLID_5_" class="st1" d="M1088 449l-6.7-24.1-6.8 24.1h5.5v2h2v-2z"/></g><g id="Cloud"><circle id="XMLID_23_" class="st0" cx="191.3" cy="174.6" r="30.4"/><circle id="XMLID_21_" class="st0" cx="132.2" cy="161" r="44.5"/><path id="XMLID_20_" class="st0" d="M93.2 205.5h96.7c7 0 12.7-5.7 12.7-12.7 0-7-5.7-12.7-12.7-12.7H93.2c-7 0-12.7 5.7-12.7 12.7 0 7 5.7 12.7 12.7 12.7z"/></g><g id="Cloud_3"><circle id="XMLID_72_" class="st0" cx="1056" cy="114.3" r="53.8"/><circle id="XMLID_73_" class="st0" cx="1125" cy="144.5" r="35"/><circle id="XMLID_74_" class="st0" cx="988" cy="139.5" r="27"/><path id="XMLID_75_" class="st0" d="M961.8 179.8h166.5c9 0 16.3-7.3 16.3-16.2 0-9-7.3-16.2-16.3-16.2H961.8c-9 0-16.3 7.3-16.3 16.2 0 8.9 7.3 16.2 16.3 16.2z"/></g></svg>